
        <svg xmlns="http://www.w3.org/2000/svg" xmlns:xlink="http://www.w3.org/1999/xlink" version="1.1" width="3300" height="2985.7702696591027" viewBox="0 0 3300 2985.7702696591027">
			
			<g transform="scale(15) translate(10, 10)">
				<defs id="SvgjsDefs2314"/><g id="SvgjsG2315" featureKey="symbolFeature-0" transform="matrix(1.7889088388995955,0,0,1.7889088388995955,41.05545580550202,-1.7889088388995955)" fill="#000"><g xmlns="http://www.w3.org/2000/svg"><g><path d="M44.6,55c1.7-3.7,2.9-8.1,3.5-12.9c1.7-1.8,3.3-3.6,4.7-5.5c2.1,3.3,3.3,6.5,3.7,9.2c0.7,0,1.4,0.2,2.1,0.5    c-0.3-3.5-1.8-7.4-4.5-11.5c5-7.6,6-14.5,2.6-18.7c-2.5-3.2-7.1-4.3-13-3.3c-1.1-2-2.4-3.7-3.7-5c-0.2,0.7-0.5,1.4-0.8,2    c0.9,0.9,1.7,2.1,2.5,3.4c-2.8,0.7-5.6,1.8-8.6,3.3h0c-2.9-1.5-5.8-2.6-8.6-3.3c0.8-1.3,1.6-2.5,2.5-3.4c-0.4-0.6-0.7-1.3-0.8-2    c-1.4,1.3-2.6,3-3.7,5c-5.9-1-10.5,0.2-13,3.3C6.1,20.3,7,27.3,12,34.9C9.3,39,7.8,42.9,7.5,46.4c0.6-0.3,1.3-0.4,2.1-0.5    c0.3-2.8,1.6-5.9,3.7-9.2c1.4,1.9,2.9,3.7,4.7,5.5c0.6,4.8,1.8,9.2,3.5,12.9c-1.6,0.2-3.1,0.3-4.4,0.2c-0.2,0.7-0.5,1.3-0.9,1.9    c0.8,0.1,1.6,0.2,2.4,0.2c1.2,0,2.5-0.1,3.9-0.4C25.2,62.1,29,65,33,65c4,0,7.8-2.9,10.7-8.1c1.4,0.2,2.7,0.3,3.9,0.3    c0.9,0,1.7,0,2.4-0.2c-0.4-0.6-0.7-1.2-0.9-1.9C47.7,55.3,46.2,55.3,44.6,55z M42.5,54.7c-2.3-0.5-4.8-1.4-7.4-2.6    c2.6-1.4,5.1-3.1,7.5-5c1.1-0.8,2.1-1.7,3-2.6C45,48.3,44,51.7,42.5,54.7z M48.4,38.9c0.1-1.3,0.1-2.7,0.1-4c0-1.3,0-2.7-0.1-4    c1.2,1.3,2.2,2.7,3.2,4C50.6,36.2,49.5,37.6,48.4,38.9z M55,17.4c2.6,3.3,1.8,9.3-2.3,15.7c-1.3-1.9-2.9-3.7-4.7-5.5    c-0.6-4.8-1.8-9.2-3.5-12.9C49.4,14,53.1,14.9,55,17.4z M42.5,15.1C44,18,45,21.5,45.7,25.3c-1-0.9-2-1.8-3-2.6    c-2.4-1.9-4.9-3.6-7.5-5C37.7,16.5,40.2,15.6,42.5,15.1z M41.4,24.3c1.7,1.4,3.3,2.8,4.8,4.2l0,0c0.2,2.1,0.4,4.2,0.4,6.4    c0,2.2-0.1,4.3-0.4,6.4c-1.5,1.5-3.1,2.9-4.8,4.2c-2.7,2.1-5.5,4-8.4,5.5c-2.9-1.5-5.7-3.4-8.4-5.5c-1.7-1.3-3.3-2.8-4.8-4.2    c-0.2-2.1-0.4-4.2-0.4-6.3c0-2.2,0.1-4.3,0.4-6.4v0c1.5-1.5,3.1-2.9,4.8-4.2c2.7-2.1,5.5-4,8.4-5.5C35.9,20.3,38.7,22.1,41.4,24.3    z M30.8,17.7c-2.6,1.4-5.1,3.1-7.5,5c-1,0.8-2.1,1.7-3,2.6C21,21.5,22,18,23.4,15.1C25.8,15.6,28.3,16.5,30.8,17.7z M10.9,17.4    c1.9-2.5,5.6-3.4,10.4-2.7c-1.7,3.7-2.9,8.1-3.5,12.8v0c-1.8,1.8-3.3,3.6-4.7,5.5C9.2,26.6,8.3,20.7,10.9,17.4z M14.4,34.9    c1-1.4,2-2.7,3.2-4c-0.1,1.3-0.1,2.7-0.1,4c0,1.3,0.1,2.7,0.1,4C16.4,37.6,15.4,36.2,14.4,34.9z M20.3,44.4c1,0.9,2,1.8,3,2.6    c2.4,1.9,4.9,3.6,7.5,5c-2.5,1.2-5,2.1-7.4,2.6C22,51.7,21,48.2,20.3,44.4z M33,63c-3.1,0-6.1-2.3-8.6-6.5    c2.8-0.7,5.6-1.8,8.6-3.3c3,1.5,5.8,2.6,8.6,3.3C39.1,60.7,36.1,63,33,63z"/></g><g><path d="M25.1,41.3l6.9-6.9v-9.7c-5.2,0.5-9.2,4.9-9.2,10.2C22.8,37.3,23.6,39.6,25.1,41.3z"/></g><g><path d="M33,45.1c5.3,0,9.7-4.1,10.2-9.2h-9.7l-6.9,6.9C28.3,44.2,30.5,45.1,33,45.1z"/></g><g><path d="M34,24.7v9.2h9.2C42.7,29,38.8,25.2,34,24.7z"/></g><g><path d="M33,11.3c2.8,0,5.2-2.3,5.2-5.2S35.8,1,33,1s-5.1,2.3-5.1,5.1S30.1,11.3,33,11.3z"/></g><g><path d="M55.8,47.9c-2.8,0-5.2,2.3-5.2,5.2s2.3,5.2,5.2,5.2c2.8,0,5.1-2.3,5.1-5.2S58.7,47.9,55.8,47.9z"/></g><g><path d="M10.2,47.9C7.3,47.9,5,50.2,5,53s2.3,5.2,5.2,5.2s5.1-2.3,5.1-5.2S13,47.9,10.2,47.9z"/></g></g></g><g id="SvgjsG2316" featureKey="fiAKjI-0" transform="matrix(1.4534884688014853,0,0,1.4534884688014853,-1.2209303623086594,125.24999805938353)" fill="#000"><path d="M0.84 20 l0 -13.7 l5.6 0 c4.22 0 6.98 3 6.98 6.78 c0 3.86 -2.88 6.92 -7.14 6.92 l-5.44 0 z M6.28 9.14 l-2.34 0 l0 8.02 l2.44 0 c2.22 0 3.92 -1.72 3.92 -4.04 c0 -2.28 -1.7 -3.98 -4.02 -3.98 z M14.78 20 l0 -13.7 l10.02 0 l0 2.8 l-6.92 0 l0 2.58 l6.4 0 l0 2.72 l-6.4 0 l0 2.8 l6.94 0 l0 2.8 l-10.04 0 z M34.019999999999996 20 l-3.8 0 l-4.74 -13.7 l3.34 0 l3.38 10.36 l3.38 -10.36 l3.2 0 z M44.72 20.26 c-3.46 0 -5.36 -1.72 -5.54 -4.54 l3.1 0 c0.06 1.04 0.66 2.08 2.52 2.08 c1.56 0 2.36 -0.62 2.36 -1.48 c0 -1.06 -1.34 -1.34 -2.9 -1.68 c-2.18 -0.52 -4.84 -1.16 -4.84 -4.42 c0 -2.4 1.86 -4.18 5.14 -4.18 c3.34 0 5.18 1.82 5.38 4.5 l-3.12 0 c-0.06 -1.1 -0.66 -1.98 -2.34 -1.98 c-1.24 0 -2.06 0.5 -2.06 1.4 c0 1.16 1.36 1.48 2.92 1.84 c2.24 0.5 4.92 1.06 4.92 4.14 c0 2.5 -1.96 4.32 -5.54 4.32 z M58.44 20.28 c-4 0 -7.26 -3.06 -7.26 -7.12 c0 -4.08 3.26 -7.14 7.26 -7.14 c4.1 0 7.26 3.06 7.26 7.12 c0 4.08 -3.16 7.14 -7.26 7.14 z M58.44 17.4 c2.32 0 4.1 -1.84 4.1 -4.26 c0 -2.38 -1.78 -4.24 -4.1 -4.24 s-4.1 1.86 -4.1 4.26 s1.78 4.24 4.1 4.24 z M72.92 20.24 c-3.84 0 -5.94 -2.28 -5.94 -5.68 l0 -8.26 l3.1 0 l0 7.84 c0 2.08 1.02 3.22 2.82 3.22 c1.78 0 2.78 -1.14 2.78 -3.22 l0 -7.84 l3.1 0 l0 8.26 c0 3.4 -2.08 5.68 -5.86 5.68 z M87.02 20 l-3.1 0 l0 -10.86 l-4.08 0 l0 -2.84 l11.26 0 l0 2.84 l-4.08 0 l0 10.86 z M95.33999999999999 20 l-3.1 0 l0 -13.7 l3.1 0 l0 13.7 z M105.5 20 l-5.52 -8.68 l0 8.68 l-2.98 0 l0 -13.7 l3.38 0 l5.52 8.7 l0 -8.7 l2.98 0 l0 13.7 l-3.38 0 z M119.46 20 l0 -5.36 l-5.8 0 l0 5.36 l-3.1 0 l0 -13.7 l3.1 0 l0 5.5 l5.8 0 l0 -5.5 l3.1 0 l0 13.7 l-3.1 0 z M131.18 20.28 c-4 0 -7.26 -3.06 -7.26 -7.12 c0 -4.08 3.26 -7.14 7.26 -7.14 c4.1 0 7.26 3.06 7.26 7.12 c0 4.08 -3.16 7.14 -7.26 7.14 z M131.18 17.4 c2.32 0 4.1 -1.84 4.1 -4.26 c0 -2.38 -1.78 -4.24 -4.1 -4.24 s-4.1 1.86 -4.1 4.26 s1.78 4.24 4.1 4.24 z"/></g><g id="SvgjsG2317" featureKey="sloganFeature-0" transform="matrix(0.9757882466844682,0,0,0.9757882466844682,19.102274796765066,159.34042798311324)" fill="#000"><path d="M0.92 18.54 c0.88 0.82 2.7 1.66 4.52 1.66 c2.8 0 4.58 -1.44 4.58 -3.7 c0 -1.84 -0.88 -2.92 -3.92 -4.64 c-2.32 -1.34 -2.88 -1.78 -2.88 -2.66 c0 -0.94 0.88 -1.68 2.36 -1.68 c0.86 0 2 0.38 2.66 0.8 l0.96 -1.44 c-0.94 -0.62 -2.42 -1.08 -3.6 -1.08 c-2.58 0 -4.3 1.48 -4.3 3.42 c0 1.72 0.86 2.58 3.5 4.02 c2.34 1.28 3.3 2.22 3.3 3.24 c0 1.2 -1.04 1.92 -2.66 1.92 c-1.4 0 -2.8 -0.66 -3.5 -1.3 z M17.777 18.28 l5.92 0 l-0.12 1.72 l-7.6 0 l0 -14 l1.8 0 l0 12.28 z M35.854 20.2 c-4 0 -7.18 -3.2 -7.18 -7.2 s3.18 -7.2 7.18 -7.2 s7.18 3.2 7.18 7.2 s-3.18 7.2 -7.18 7.2 z M35.854 18.48 c3.04 0 5.32 -2.38 5.32 -5.48 s-2.28 -5.48 -5.32 -5.48 c-3.06 0 -5.34 2.38 -5.34 5.48 s2.28 5.48 5.34 5.48 z M60.831 11.88 l0 6.86 c-1.08 0.82 -2.56 1.46 -4.9 1.46 c-4.4 0 -7.26 -3.2 -7.26 -7.2 s3.02 -7.2 7.22 -7.2 c1.94 0 3.54 0.7 4.8 1.7 l-0.94 1.36 c-1.1 -0.88 -2.46 -1.34 -3.86 -1.34 c-3 0 -5.34 2.28 -5.34 5.48 s2.16 5.46 5.38 5.46 c1.22 0 2.26 -0.26 3.1 -0.66 l0 -4.18 l-2.7 0 l0.12 -1.74 l4.38 0 z M76.56800000000001 20 l-1.22 -2.84 l-6.24 0 l-1.22 2.84 l-1.92 0 l6.16 -14.2 l0.2 0 l6.16 14.2 l-1.92 0 z M69.828 15.48 l4.8 0 l-2.4 -5.54 z M93.44500000000001 6 l1.8 0 l0 14.2 l-0.22 0 l-9.4 -9.98 l0 9.78 l-1.78 0 l0 -14.2 l0.2 0 l9.4 9.98 l0 -9.78 z M120.91900000000001 7.720000000000001 l-4.08 0 l0 12.28 l-1.8 0 l0 -12.28 l-4.1 0 l0.12 -1.72 l9.74 0 z M134.85600000000002 18.28 l0.12 1.72 l-8.52 0 l0 -14 l8.12 0 l0.14 1.72 l-6.46 0 l0 3.42 l4.38 0 l0 1.72 l-4.38 0 l0 5.42 l6.6 0 z M150.513 20 l-2.1 0 l-3.24 -5.32 l-3.26 5.32 l-2.12 0 l4.32 -7.04 l-4.26 -6.96 l2.1 0 l3.2 5.24 l3.22 -5.24 l2.1 0 l-4.26 6.96 z M164.89 7.720000000000001 l-4.08 0 l0 12.28 l-1.8 0 l0 -12.28 l-4.1 0 l0.12 -1.72 l9.74 0 z"/></g>
			</g>
		</svg>
	